<?xml version="1.0" encoding="utf-8"?>
<!-- Generator: Adobe Illustrator 16.0.0, SVG Export Plug-In . SVG Version: 6.00 Build 0)  -->
<!DOCTYPE svg PUBLIC "-//W3C//DTD SVG 1.1//EN" "http://www.w3.org/Graphics/SVG/1.1/DTD/svg11.dtd">
<svg version="1.1" id="Layer_1" xmlns="http://www.w3.org/2000/svg" xmlns:xlink="http://www.w3.org/1999/xlink" x="0px" y="0px"
	 width="198.4px" height="40px" viewBox="0 0 198.4 40" style="enable-background:new 0 0 198.4 40;" xml:space="preserve">
<g>
	<defs>
		<rect id="SVGID_1_" width="198.4" height="40"/>
	</defs>
	<clipPath id="SVGID_2_">
		<use xlink:href="#SVGID_1_"  style="overflow:visible;"/>
	</clipPath>
	<path style="clip-path:url(#SVGID_2_);fill:#231F20;" d="M5.2,5.2h4.3c3.9,0,5.7,1.2,5.7,3.8c0,2.2-1.7,3.7-5.2,3.7H5.2V5.2z M0,30
		h10.6c5.6,0,11.1-2,11.1-8.4c0-3.8-2.7-6.7-6.4-7.1v-0.1c3-0.9,5.1-3.1,5.1-6.4c0-5.3-4.6-7.4-9-7.4H0V30z M5.2,17.1h5
		c4.2,0,6.2,1.1,6.2,4.2c0,3.9-3.7,4.3-6.4,4.3H5.2V17.1z"/>
</g>
<rect x="25.1" style="fill:#231F20;" width="5" height="30"/>
<g>
	<defs>
		<rect id="SVGID_3_" width="198.4" height="40"/>
	</defs>
	<clipPath id="SVGID_4_">
		<use xlink:href="#SVGID_3_"  style="overflow:visible;"/>
	</clipPath>
	<path style="clip-path:url(#SVGID_4_);fill:#231F20;" d="M38.4,20.1c0-3.1,2.2-6,5.8-6c3.6,0,5.8,2.9,5.8,6c0,3.1-2.2,6-5.8,6
		C40.6,26.1,38.4,23.2,38.4,20.1 M33.4,20.1c0,6.3,4.8,10.4,10.8,10.4c6,0,10.8-4.2,10.8-10.4c0-6.3-4.8-10.4-10.8-10.4
		C38.2,9.6,33.4,13.8,33.4,20.1"/>
	<path style="clip-path:url(#SVGID_4_);fill:#231F20;" d="M62.3,20.1c0-3.1,2.2-6,5.8-6c3.6,0,5.8,2.9,5.8,6c0,3.1-2.2,6-5.8,6
		C64.5,26.1,62.3,23.2,62.3,20.1 M57.3,20.1c0,6.3,4.8,10.4,10.8,10.4c6,0,10.8-4.2,10.8-10.4c0-6.3-4.8-10.4-10.8-10.4
		C62.1,9.6,57.3,13.8,57.3,20.1"/>
	<path style="clip-path:url(#SVGID_4_);fill:#231F20;" d="M82,10.1h4.7v3.1h0.1c0.9-1.9,2.8-3.6,6.1-3.6c3.1,0,5.2,1.2,6.2,3.7
		c1.5-2.5,3.6-3.7,6.6-3.7c5.3,0,7.2,3.8,7.2,8.5V30h-5V18.8c0-2.5-0.8-4.6-3.7-4.6c-3.1,0-4.3,2.6-4.3,5.1V30h-5V18.2
		c0-2.4-1-4.1-3.4-4.1c-3.3,0-4.6,2.4-4.6,5.1V30h-5V10.1z"/>
	<path style="clip-path:url(#SVGID_4_);fill:#231F20;" d="M133.3,20.1c0,3.1-2.2,6-5.8,6c-3.6,0-5.8-2.9-5.8-6c0-3.1,2.2-6,5.8-6
		C131.2,14.1,133.3,17,133.3,20.1 M116.8,30h4.7v-3h0.1c1.5,2.4,4.1,3.5,6.8,3.5c6.1,0,9.8-4.6,9.8-10.5c0-5.9-3.9-10.4-9.6-10.4
		c-3.7,0-5.7,1.7-6.8,3h-0.1V0h-5V30z"/>
	<path style="clip-path:url(#SVGID_4_);fill:#231F20;" d="M145.5,18.1c0.4-2.9,2.2-4.7,5.1-4.7c3.1,0,5,1.8,5.1,4.7H145.5z
		 M160.7,21.8v-1.4c0-6.9-3.8-10.8-9.3-10.8c-6,0-10.8,4.2-10.8,10.4c0,6.3,4.8,10.5,10.8,10.5c3.2,0,6.1-1.1,8.4-4l-3.6-2.7
		c-1.2,1.5-2.9,2.7-5.3,2.7c-2.8,0-5-1.8-5.4-4.7H160.7z"/>
	<path style="clip-path:url(#SVGID_4_);fill:#231F20;" d="M164,10.1h5v3.1h0.1c1.1-2.3,3.3-3.6,5.9-3.6c0.6,0,1.2,0.1,1.8,0.3v4.8
		c-0.8-0.2-1.6-0.4-2.4-0.4c-4.7,0-5.4,3.9-5.4,5V30h-5V10.1z"/>
	<path style="clip-path:url(#SVGID_4_);fill:#231F20;" d="M187.8,14.1c3.6,0,5.9,2.4,5.9,5.8c0,3.3-2.2,5.9-5.9,5.9
		c-3.4,0-5.8-2.6-5.8-5.8C181.9,16.5,184.3,14.1,187.8,14.1 M193.7,10.1v3h-0.1c-1.5-2.4-4.1-3.5-6.8-3.5c-6.1,0-9.8,4.6-9.8,10.4
		c0,5.6,3.9,10.2,9.9,10.2c2.5,0,5.1-1,6.5-2.9h0.1v1.5c0,3.9-1.5,6.7-6.3,6.7c-2.8,0-4.9-1-6.8-2.9l-3,4.1c2.8,2.5,6.2,3.3,9.9,3.3
		c7.8,0,11.2-4.6,11.2-11.7V10.1H193.7z"/>
</g>
</svg>
