<?xml version="1.0" encoding="utf-8"?>
<!-- Generator: Adobe Illustrator 16.0.0, SVG Export Plug-In . SVG Version: 6.00 Build 0)  -->
<!DOCTYPE svg PUBLIC "-//W3C//DTD SVG 1.1//EN" "http://www.w3.org/Graphics/SVG/1.1/DTD/svg11.dtd">
<svg version="1.1" id="Layer_1" xmlns="http://www.w3.org/2000/svg" xmlns:xlink="http://www.w3.org/1999/xlink" x="0px" y="0px"
	 width="182.9px" height="30px" viewBox="0 0 182.9 30" style="enable-background:new 0 0 182.9 30;" xml:space="preserve">
<g>
	<defs>
		<rect id="SVGID_1_" width="182.9" height="30"/>
	</defs>
	<clipPath id="SVGID_2_">
		<use xlink:href="#SVGID_1_"  style="overflow:visible;"/>
	</clipPath>
	<path style="clip-path:url(#SVGID_2_);fill:#5B707C;" d="M175,10.1c-3.5,0-6.2,2.3-6.3,7.2h12.2C180.9,12.5,178.6,10.1,175,10.1
		 M168.7,18.9c0,5.2,2.8,7.5,6.8,7.5c3,0,5.1-0.9,6.1-1.4v1.6c-1.3,0.9-3.8,1.4-6.5,1.4c-3.8,0-8.4-2.2-8.4-9v-1.3
		c0-5.8,3.5-9.2,8.2-9.2c5,0,8,3.5,8,9.1v1.3H168.7z M161.6,27.6V13.6c0-2-1.6-3.5-4.3-3.5c-2.7,0-5.1,1.5-6.3,4v13.5h-2V9.1h1.8
		l0.1,3.4c0.8-1.9,3.3-4,6.9-4c3.4,0,5.7,1.9,5.7,5.5v13.7H161.6z M144.8,27.6h-2V8.9h2V27.6z M142.5,3.9h2.5v2.8h-2.5V3.9z
		 M136.6,3h1.9v24.7h-1.9V3z M130.6,27.6V13.6c0-2-1.6-3.5-4.3-3.5c-2.7,0-5.2,1.5-6.3,4v13.5h-2V9.1h1.8l0.1,3.4
		c0.8-1.9,3.3-4,6.9-4c3.4,0,5.7,1.9,5.7,5.5v13.7H130.6z M112.8,15.1c0-7.3-2.4-10.8-7.6-10.8c-4.9,0-7.6,3.2-7.6,10.8v0.6
		c0,7.4,2.7,10.7,7.6,10.7c4.9,0,7.6-2.8,7.6-10.6V15.1z M105.2,28c-5.7,0-9.6-3.7-9.6-11.9v-1.4c0-7.9,3.5-12.1,9.6-12.1
		c6.4,0,9.6,4.3,9.6,12.1v1.3C114.8,24.1,111.4,28,105.2,28"/>
	<path style="clip-path:url(#SVGID_2_);fill:#1A161B;" d="M25.9,12.9h-0.8V5.3c0-0.3,0.1-0.7,0.8-0.4V12.9z M25.9,24.3
		c-0.2-0.1-0.3-0.2-0.3-0.2c-0.1-0.1-0.5-0.3-0.5-0.7v-4.9h0.8V24.3z M17.1,12.9h-0.3c-0.2,0-0.4,0.1-0.5,0.2
		c-0.1,0.1-2,3.1-2.9,4.4V5.4C14,5.7,16.5,7,16.6,7.1c0.3,0.2,0.5,0.3,0.5,0.7V12.9z M12.8,25.3c-0.4-0.2-0.6-0.4-0.7-0.4
		c-0.2-0.1-0.3-0.3-0.3-0.6V5.9c0-0.4,0.5-0.7,1-0.7V25.3z M40.1,25.8c-0.2-0.2-2.2-1.1-2.2-3.2V4.4c0-0.1,0-0.3-0.3-0.5
		c-0.3-0.1-6.6-3.8-6.7-3.9C30.7,0,30.6,0,30.1,0.2c-0.4,0.3-4.5,2.8-5.5,3.4c-0.1,0.1-0.3,0.1-0.5,0c-1.1-0.6-5.3-3-5.5-3
		c-0.2-0.1-0.4-0.1-0.7,0c-0.2,0.1-5.8,3.1-6.9,3.7c-0.1,0.1-0.2,0.1-0.3,0c-0.8-0.5-4.6-2.7-4.8-2.8c-0.1-0.1-0.4-0.2-0.7,0
		c-0.3,0.2-5,3.2-5.1,3.3C0.1,4.9,0,5.1,0,5.3c0,0.2,0.3,0.4,0.6,0.6C0.8,6,3.8,8.1,4,8.2C4.3,8.4,4.4,8.7,4.4,9v15.7
		c0,0-1.8,1.1-2,1.1c-0.1,0.1-0.6,0.4-0.1,0.7c0.3,0.2,5,2.6,6.5,3.4c0.3,0.1,0.6,0.1,0.8,0c1.2-0.7,4.8-2.7,4.9-2.8
		c0.2-0.1,0.5-0.4,0.1-0.7c-0.1-0.1-0.7-0.4-1.2-0.8v-7.2h3.7v5.6c0,0-1.6,1-1.7,1.1c-0.1,0.1-0.4,0.4,0.2,0.8
		c0.2,0.1,5.7,3,7.4,3.9c0.3,0.2,0.7,0.2,0.9,0c1.2-0.8,4.8-3,4.9-3.1c0.2-0.1,0.2-0.1,0.3-0.3c0-0.1-0.1-0.2-0.2-0.3
		c-0.1-0.1-1.5-0.9-2.4-1.5v-6.4c0.7-1,3.3-5,3.4-5.1c0.1-0.1,0.1-0.3-0.1-0.3h-3.2V5.2c1,0.5,3.3,1.7,3.4,1.7
		c0.3,0.2,0.5,0.5,0.5,0.9v16.5c0,1.1,0.5,4,4.5,5.6c0.1,0,0.5,0.1,0.7-0.1c1.1-0.8,4.6-3.3,4.7-3.4C40.4,26.4,40.6,26.1,40.1,25.8"
		/>
	<path style="clip-path:url(#SVGID_2_);fill:#1A161B;" d="M54,24.7c0,0.1,0,0.1-0.1,0.2c-0.2,0.2-0.8,0.6-1.8,0.2
		c-1.4-0.6-3.6-2.2-4.6-4.2c-0.7-1.3-1.3-3.4-0.7-5.3c0.4-1.3,0.9-2.4,2.9-3.6c0.1-0.1,0.4-0.1,0.6,0c0.8,0.5,3.3,2.2,3.4,2.3
		c0.2,0.1,0.3,0.3,0.3,0.5V24.7z M65.8,25.4c-0.2-0.2-2.5-1.7-3.1-2.1c-0.1-0.1-0.2-0.2-0.2-0.3v-8.7c0-0.2,0.1-0.4,0.2-0.5
		c0.2-0.1,1.1-0.9,1.2-1c0.2-0.1,0.3-0.5-0.2-0.8c-0.6-0.4-7.6-4-7.9-4.2c-0.3-0.1-0.7-0.2-1.2,0c-1.2,0.4-7.7,2.5-11.9,8
		c-1.9,2.5-2.3,5.7-1.8,8.2c0.5,2.2,1.7,4.9,6.9,5.9c0.1,0,0.5,0,0.7-0.2c1-0.8,4.1-3.3,4.3-3.4c0.2-0.2,0.4-0.2,0.6-0.1
		c0.2,0.1,5.8,2.8,7.3,3.6c0.2,0.1,0.5,0.1,0.7,0c1-0.8,4.2-3.3,4.4-3.4C66.2,26,66.2,25.7,65.8,25.4"/>
	<path style="clip-path:url(#SVGID_2_);fill:#1A161B;" d="M79,25.8c-0.1-0.1-1.9-1.1-2.4-1.4c-0.2-0.1-0.2-0.4-0.2-0.7v-9.1
		c0-0.3,0.1-0.5,0.4-0.7c0.2-0.1,0.8-0.6,1.1-0.8c0.2-0.2,0.4-0.4,0.1-0.7c-0.2-0.2-6.3-3.5-6.8-3.8c-0.5-0.3-0.8-0.3-1-0.1
		c-0.3,0.2-4.6,3.1-4.9,3.3c-0.3,0.2-0.3,0.6-0.1,0.8c0.2,0.1,2.2,1.3,2.5,1.4c0.3,0.2,0.4,0.3,0.4,0.5v9.7c0,0.3-0.1,0.5-0.2,0.6
		c-0.2,0.2-0.6,0.4-0.9,0.7c-0.5,0.4-0.2,0.7-0.1,0.8c0.1,0.1,5.3,2.7,6.7,3.4c0.2,0.1,0.4,0.1,0.6,0c1-0.7,4.6-3.2,4.9-3.4
		C79.2,26.1,79.2,25.9,79,25.8"/>
	<path style="clip-path:url(#SVGID_2_);fill:#1A161B;" d="M73.3,7.3c0.8-0.5,1.4-1.2,2-1.9c0.8-1,1.3-2.3,0.7-3.6
		c-0.5-1.1-2-1.7-3.1-1.3c-1.2,0.4-2.2,1.5-2.5,2.8c-0.3,1.3,0.2,3.3,0.8,4.2C71.7,8.1,72.3,7.9,73.3,7.3"/>
	<path style="clip-path:url(#SVGID_2_);fill:#1A161B;" d="M92.1,26.1C92,26,90.3,25,89.7,24.7c-0.2-0.1-0.2-0.4-0.2-0.7V1.6
		c0-0.3-0.4-0.5-0.9-0.3c-0.4,0.1-8.5,2.6-8.7,2.7c-0.2,0.1-0.2,0.2-0.2,0.3c0,0.2,0.2,0.3,0.5,0.4c0.5,0.2,1.2,0.4,1.2,2.2v17.5
		c0,0.2-0.1,0.4-0.2,0.5c-0.2,0.2-0.5,0.4-0.8,0.7c-0.5,0.4-0.2,0.7-0.1,0.8c0.1,0.1,5.2,2.6,6.7,3.4c0.2,0.1,0.5,0.1,0.7,0
		c1.1-0.7,4.1-2.8,4.4-3C92.3,26.4,92.3,26.2,92.1,26.1"/>
</g>
</svg>
